<svg xmlns="http://www.w3.org/2000/svg" width="30" height="30" viewBox="0 0 30 30">
  <g id="noun_account_4277750" transform="translate(-1 -1)">
    <g id="Groupe_124" data-name="Groupe 124" transform="translate(-96 -288)">
      <g id="Groupe_123" data-name="Groupe 123">
        <path id="Tracé_65" data-name="Tracé 65" d="M112,295a5,5,0,1,0,5,5A5,5,0,0,0,112,295Zm0,2a3,3,0,1,1-3,3A3,3,0,0,1,112,297Z" fill="#fff" fill-rule="evenodd"/>
        <path id="Tracé_66" data-name="Tracé 66" d="M112,289a15,15,0,1,0,15,15A15.007,15.007,0,0,0,112,289Zm8.132,25.14a9,9,0,0,0-16.264,0,12.991,12.991,0,0,0,16.264,0Zm1.514-1.428a13,13,0,1,0-19.292,0,11,11,0,0,1,19.292,0Z" fill="#fff" fill-rule="evenodd"/>
      </g>
    </g>
  </g>
</svg>
