<svg xmlns="http://www.w3.org/2000/svg" width="24" height="17.35" viewBox="0 0 24 17.35">
  <g id="noun_activity_1723380" transform="translate(-143.8 2.8)">
    <path id="Tracé_12" data-name="Tracé 12" d="M33.9,43.936a.634.634,0,0,0,.6-.461L37.2,34.338l3.212,13.7a.648.648,0,0,0,.642.508h0a.676.676,0,0,0,.642-.508l1.56-6.691h3.9a.646.646,0,0,0,0-1.292H42.706a.676.676,0,0,0-.642.508l-1.055,4.522L37.842,31.708a.636.636,0,0,0-.6-.508.69.69,0,0,0-.642.461l-2.845,9.644L31.463,35.63a.654.654,0,0,0-.6-.415h0a.593.593,0,0,0-.6.415l-1.836,4.43H24.442a.646.646,0,0,0,0,1.292h4.5a.593.593,0,0,0,.6-.415l1.423-3.369,2.386,5.953A.551.551,0,0,0,33.9,43.936Z" transform="translate(120 -34)" fill="#e9e9e9"/>
  </g>
</svg>
