<svg id="noun_dashboard_4164025" xmlns="http://www.w3.org/2000/svg" width="24" height="24" viewBox="0 0 24 24">
  <path id="Tracé_4" data-name="Tracé 4" d="M9.25,8H1.75A1.75,1.75,0,0,1,0,6.25V1.75A1.75,1.75,0,0,1,1.75,0h7.5A1.75,1.75,0,0,1,11,1.75v4.5A1.75,1.75,0,0,1,9.25,8ZM1.75,1.5a.25.25,0,0,0-.25.25v4.5a.25.25,0,0,0,.25.25h7.5a.25.25,0,0,0,.25-.25V1.75a.25.25,0,0,0-.25-.25Z" fill="#e9e9e9"/>
  <path id="Tracé_5" data-name="Tracé 5" d="M9.25,24H1.75A1.75,1.75,0,0,1,0,22.25V11.75A1.75,1.75,0,0,1,1.75,10h7.5A1.75,1.75,0,0,1,11,11.75v10.5A1.75,1.75,0,0,1,9.25,24ZM1.75,11.5a.25.25,0,0,0-.25.25v10.5a.25.25,0,0,0,.25.25h7.5a.25.25,0,0,0,.25-.25V11.75a.25.25,0,0,0-.25-.25Z" fill="#e9e9e9"/>
  <path id="Tracé_6" data-name="Tracé 6" d="M22.25,24h-7.5A1.75,1.75,0,0,1,13,22.25v-4.5A1.75,1.75,0,0,1,14.75,16h7.5A1.75,1.75,0,0,1,24,17.75v4.5A1.75,1.75,0,0,1,22.25,24Zm-7.5-6.5a.25.25,0,0,0-.25.25v4.5a.25.25,0,0,0,.25.25h7.5a.25.25,0,0,0,.25-.25v-4.5a.25.25,0,0,0-.25-.25Z" fill="#e9e9e9"/>
  <path id="Tracé_7" data-name="Tracé 7" d="M22.25,14h-7.5A1.75,1.75,0,0,1,13,12.25V1.75A1.75,1.75,0,0,1,14.75,0h7.5A1.75,1.75,0,0,1,24,1.75v10.5A1.75,1.75,0,0,1,22.25,14ZM14.75,1.5a.25.25,0,0,0-.25.25v10.5a.25.25,0,0,0,.25.25h7.5a.25.25,0,0,0,.25-.25V1.75a.25.25,0,0,0-.25-.25Z" fill="#e9e9e9"/>
</svg>
