<svg id="fire" xmlns="http://www.w3.org/2000/svg" width="31.874" height="40" viewBox="0 0 31.874 40">
  <path id="Tracé_30" data-name="Tracé 30" d="M98.546,51.575c-.834-.911-2.131-2.14-2.683.636a6.433,6.433,0,0,1-1,2.257,14.007,14.007,0,0,0-2.771-5.6,11.614,11.614,0,0,1-2.247-6.221.64.64,0,0,0-1.069-.422,18.13,18.13,0,0,0-5.918,13.432,9.247,9.247,0,0,1-2.424-3.786.846.846,0,0,0-1.5-.2c-.074.113-.143.225-.2.335-2.91,5.145-4.309,11.392-3.015,17.2,2.164,9.734,16.475,12.456,24.052,6.337C107.172,69.557,104.816,58.416,98.546,51.575Z" transform="translate(-73.426 -38.799)" fill="#ed694a"/>
  <g id="Groupe_59" data-name="Groupe 59" transform="translate(1.798 3.241)">
    <path id="Tracé_31" data-name="Tracé 31" d="M77.7,178.525a25.431,25.431,0,0,1,2.888-17.238c-.071-.172-.14-.349-.2-.534a.838.838,0,0,0-1.49-.2c-.073.111-.141.223-.2.332-2.881,5.095-4.267,11.281-2.986,17.037.977,4.4,4.457,7.348,8.665,8.683A11.758,11.758,0,0,1,77.7,178.525Z" transform="translate(-75.225 -150.66)" fill="#d8553a"/>
    <path id="Tracé_32" data-name="Tracé 32" d="M174.837,55.247A18.583,18.583,0,0,1,179.8,42.93c-.021-.181-.037-.342-.047-.465a.624.624,0,0,0-1.035-.445,17.96,17.96,0,0,0-5.884,13.323l.675.524a.909.909,0,0,0,1.1.01A.826.826,0,0,0,174.837,55.247Z" transform="translate(-165.276 -41.861)" fill="#d8553a"/>
  </g>
  <path id="Tracé_33" data-name="Tracé 33" d="M141.218,171.85c-.618-.666-1.58-1.565-1.989.465a4.678,4.678,0,0,1-.742,1.651,10.192,10.192,0,0,0-2.054-4.1,8.431,8.431,0,0,1-1.665-4.55.476.476,0,0,0-.792-.309,13.182,13.182,0,0,0-4.386,9.825,6.761,6.761,0,0,1-1.8-2.769.631.631,0,0,0-1.115-.149c-.055.082-.106.165-.152.245a17.859,17.859,0,0,0-2.235,12.584c1.6,7.12,12.211,9.11,17.827,4.635C147.612,185,145.865,176.854,141.218,171.85Z" transform="translate(-118.363 -151.763)" fill="#f4a32c"/>
  <path id="Tracé_34" data-name="Tracé 34" d="M126.258,265.8a19.606,19.606,0,0,1,1.87-12.328,7.145,7.145,0,0,1-.388-.91.619.619,0,0,0-1.1-.149c-.054.082-.1.165-.15.245a18.063,18.063,0,0,0-2.206,12.584c.736,3.311,3.394,5.512,6.584,6.47A8.391,8.391,0,0,1,126.258,265.8Z" transform="translate(-118.297 -232.257)" fill="#e89528"/>
  <path id="Tracé_35" data-name="Tracé 35" d="M179.943,281.74c-.413-.451-1.055-1.06-1.328.315a3.184,3.184,0,0,1-.5,1.118,6.934,6.934,0,0,0-1.372-2.773,5.752,5.752,0,0,1-1.112-3.08.317.317,0,0,0-.529-.209,8.977,8.977,0,0,0-2.93,6.651,4.577,4.577,0,0,1-1.2-1.875.419.419,0,0,0-.745-.1c-.037.056-.071.112-.1.166a12.227,12.227,0,0,0-1.493,8.518c1.071,4.82,8.157,6.167,11.908,3.138a6.033,6.033,0,0,0,2.243-4.116A10.356,10.356,0,0,0,179.943,281.74Z" transform="translate(-159.235 -255.219)" fill="#f4d44e"/>
  <path id="Tracé_36" data-name="Tracé 36" d="M216.095,383.715c-.23-.251-.588-.59-.74.175a1.773,1.773,0,0,1-.276.623,3.864,3.864,0,0,0-.764-1.545,3.2,3.2,0,0,1-.62-1.716.177.177,0,0,0-.295-.117,5,5,0,0,0-1.632,3.705,2.55,2.55,0,0,1-.668-1.044.233.233,0,0,0-.415-.056c-.02.031-.039.062-.056.092a6.812,6.812,0,0,0-.832,4.746c.813,3.657,7.475,3.546,7.884-.545A5.77,5.77,0,0,0,216.095,383.715Z" transform="translate(-197.307 -351.225)" fill="#eae9e8"/>
  <path id="Tracé_37" data-name="Tracé 37" d="M211.341,389.306a5.553,5.553,0,0,1,.832-4.245c.017-.027.036-.055.056-.083a.245.245,0,0,1,.415.05,2.294,2.294,0,0,0,.668.934,4.234,4.234,0,0,1,1.122-2.833,3.222,3.222,0,0,1-.741-1.876.177.177,0,0,0-.295-.117,5,5,0,0,0-1.632,3.705,2.55,2.55,0,0,1-.668-1.044.233.233,0,0,0-.415-.056c-.02.031-.039.062-.056.092a6.812,6.812,0,0,0-.832,4.746,3.588,3.588,0,0,0,3.187,2.595A2.908,2.908,0,0,1,211.341,389.306Z" transform="translate(-197.324 -351.227)" fill="#f7e7a1"/>
  <g id="Groupe_60" data-name="Groupe 60">
    <path id="Tracé_38" data-name="Tracé 38" d="M169.651,5.268a3.393,3.393,0,0,0,0-5.268A3.393,3.393,0,0,0,169.651,5.268Z" transform="translate(-159.297)" fill="#d8553a"/>
    <path id="Tracé_39" data-name="Tracé 39" d="M432.555,146.436a3.393,3.393,0,0,0,0-5.268C431.79,141.79,430.885,145.078,432.555,146.436Z" transform="translate(-401.936 -130.238)" fill="#d8553a"/>
    <path id="Tracé_40" data-name="Tracé 40" d="M52.686,177.362a2.446,2.446,0,0,0,0-3.8C52.134,174.014,51.482,176.383,52.686,177.362Z" transform="translate(-52.006 -160.127)" fill="#d8553a"/>
    <path id="Tracé_41" data-name="Tracé 41" d="M319.937,71.842a2.446,2.446,0,0,0,0-3.8A2.446,2.446,0,0,0,319.937,71.842Z" transform="translate(-298.161 -62.777)" fill="#d8553a"/>
  </g>
  <path id="Tracé_42" data-name="Tracé 42" d="M197.566,174.213a13.735,13.735,0,0,1,3.624-8.4q-.032-.241-.053-.5a.468.468,0,0,0-.782-.309,13.043,13.043,0,0,0-4.105,7.471h0c-.038.216-.086.531-.116.778h0a14.826,14.826,0,0,0-.107,1.575C196.084,174.847,197.406,175.527,197.566,174.213Z" transform="translate(-184.755 -151.967)" fill="#e89528"/>
  <g id="Groupe_61" data-name="Groupe 61" transform="translate(9.118 21.807)">
    <path id="Tracé_43" data-name="Tracé 43" d="M170.567,345.642a13.144,13.144,0,0,1,1.042-8.04,4.859,4.859,0,0,1-.634-1.228.419.419,0,0,0-.745-.1c-.037.056-.071.112-.1.166a12.228,12.228,0,0,0-1.493,8.518,6.1,6.1,0,0,0,4.5,4.394A5.862,5.862,0,0,1,170.567,345.642Z" transform="translate(-168.396 -331.515)" fill="#e8c842"/>
    <path id="Tracé_44" data-name="Tracé 44" d="M219.259,282.585a9.663,9.663,0,0,1,1.609-4.078,6.66,6.66,0,0,1-.205-1.188.317.317,0,0,0-.529-.209,8.781,8.781,0,0,0-2.473,3.827h0c-.075.23-.18.612-.244.914h0a9.847,9.847,0,0,0-.213,1.91C218.249,283.89,219.113,283.632,219.259,282.585Z" transform="translate(-213.425 -277.026)" fill="#e8c842"/>
  </g>
</svg>
