<svg xmlns="http://www.w3.org/2000/svg" width="87.3" height="92.5" viewBox="0 0 87.3 92.5">
  <g id="noun_Idea_1175577" transform="translate(942.6 -954.7)">
    <g id="Groupe_135" data-name="Groupe 135">
      <path id="Tracé_68" data-name="Tracé 68" d="M-876.3,998.4A22.747,22.747,0,0,0-899,975.7a22.747,22.747,0,0,0-22.7,22.7,20.024,20.024,0,0,0,.7,5.4,21.2,21.2,0,0,0,3.2,7.2c.3.6.7,1.2,1.1,1.9.5.8.9,1.6,1.4,2.3,2,3.3,3.2,5.2,3.2,9.1v9.4a4.737,4.737,0,0,0,4,4.7c1,5.1,4,8.3,9.1,8.3s8.2-3.2,9.1-8.3a4.816,4.816,0,0,0,4-4.7v-9.4c0-3.9,1.2-5.9,3.2-9.1.4-.7.9-1.5,1.4-2.3.4-.7.8-1.3,1.1-1.9a21.2,21.2,0,0,0,3.2-7.2A20.024,20.024,0,0,0-876.3,998.4Zm-13.5,28.3H-908v-2.3a5.284,5.284,0,0,0-.1-1.3h18.3c0,.4-.1.8-.1,1.3v2.3Zm-.9,7.9h-16.6a.789.789,0,0,1-.8-.8v-3.1h18.2v3.1C-889.8,1034.2-890.2,1034.6-890.7,1034.6Zm-8.3,8.2c-1.1,0-3.9,0-5-4.2h10.1C-895,1042.8-897.9,1042.8-899,1042.8Zm18.1-39.8a18.6,18.6,0,0,1-2.7,6c-.4.6-.7,1.2-1.1,1.9-.5.8-.9,1.6-1.3,2.2a29.825,29.825,0,0,0-3,5.9h-19.8a25.271,25.271,0,0,0-3-5.9c-.4-.7-.9-1.4-1.3-2.2-.4-.7-.8-1.4-1.1-1.9a19.054,19.054,0,0,1-2.7-6.1,17.4,17.4,0,0,1-.6-4.5,18.736,18.736,0,0,1,18.7-18.7,18.736,18.736,0,0,1,18.7,18.7A40.417,40.417,0,0,1-880.9,1003Z" fill="#fff" stroke="#fff" stroke-width="1"/>
      <path id="Tracé_69" data-name="Tracé 69" d="M-857.8,996.4h-8.3a2.006,2.006,0,0,0-2,2,2.006,2.006,0,0,0,2,2h8.3a2.006,2.006,0,0,0,2-2A2.006,2.006,0,0,0-857.8,996.4Z" fill="#fff" stroke="#fff" stroke-width="1"/>
      <path id="Tracé_70" data-name="Tracé 70" d="M-875.8,977.2a1.975,1.975,0,0,0,1.4-.6l5.9-5.9a1.933,1.933,0,0,0,0-2.8,1.933,1.933,0,0,0-2.8,0l-5.9,5.9a1.933,1.933,0,0,0,0,2.8A1.974,1.974,0,0,0-875.8,977.2Z" fill="#fff" stroke="#fff" stroke-width="1"/>
      <path id="Tracé_71" data-name="Tracé 71" d="M-899,967.5a2.006,2.006,0,0,0,2-2v-8.3a2.006,2.006,0,0,0-2-2,2.006,2.006,0,0,0-2,2v8.3A2.006,2.006,0,0,0-899,967.5Z" fill="#fff" stroke="#fff" stroke-width="1"/>
      <path id="Tracé_72" data-name="Tracé 72" d="M-923.6,976.6a1.974,1.974,0,0,0,1.4.6,1.975,1.975,0,0,0,1.4-.6,1.933,1.933,0,0,0,0-2.8l-5.9-5.9a1.933,1.933,0,0,0-2.8,0,1.933,1.933,0,0,0,0,2.8Z" fill="#fff" stroke="#fff" stroke-width="1"/>
      <path id="Tracé_73" data-name="Tracé 73" d="M-931.8,996.4h-8.3a2.006,2.006,0,0,0-2,2,2.006,2.006,0,0,0,2,2h8.3a2.006,2.006,0,0,0,2-2A2.006,2.006,0,0,0-931.8,996.4Z" fill="#fff" stroke="#fff" stroke-width="1"/>
      <path id="Tracé_74" data-name="Tracé 74" d="M-923.6,1020.2l-5.9,5.9a1.933,1.933,0,0,0,0,2.8,1.974,1.974,0,0,0,1.4.6,1.974,1.974,0,0,0,1.4-.6l5.9-5.9a1.933,1.933,0,0,0,0-2.8A1.933,1.933,0,0,0-923.6,1020.2Z" fill="#fff" stroke="#fff" stroke-width="1"/>
      <path id="Tracé_75" data-name="Tracé 75" d="M-874.4,1020.2a1.933,1.933,0,0,0-2.8,0,1.933,1.933,0,0,0,0,2.8l5.9,5.9a1.974,1.974,0,0,0,1.4.6,1.974,1.974,0,0,0,1.4-.6,1.933,1.933,0,0,0,0-2.8Z" fill="#fff" stroke="#fff" stroke-width="1"/>
    </g>
  </g>
</svg>
