<svg xmlns="http://www.w3.org/2000/svg" width="25.059" height="25" viewBox="0 0 25.059 25">
  <g id="noun_logout_541763" transform="translate(0.5 0.5)">
    <path id="Tracé_55" data-name="Tracé 55" d="M14.6,24H1.89A1.891,1.891,0,0,1,0,22.113V1.887A1.891,1.891,0,0,1,1.89,0H14.6a1.891,1.891,0,0,1,1.89,1.887V5.52a.481.481,0,0,1-.962,0V1.887A.929.929,0,0,0,14.6.96H1.89a.929.929,0,0,0-.928.927V22.113a.929.929,0,0,0,.928.927H14.6a.929.929,0,0,0,.929-.927V18.192a.481.481,0,0,1,.962,0v3.921A1.891,1.891,0,0,1,14.6,24Z" transform="translate(0)" fill="#fff" stroke="#fff" stroke-width="1"/>
    <g id="Groupe_78" data-name="Groupe 78" transform="translate(6.832 7.477)">
      <path id="Tracé_56" data-name="Tracé 56" d="M141,240.478a.478.478,0,0,1,.478-.478h15.3a.478.478,0,0,1,0,.956h-15.3A.478.478,0,0,1,141,240.478Z" transform="translate(-141 -235.956)" fill="#fff" stroke="#fff" stroke-width="1"/>
      <g id="Groupe_77" data-name="Groupe 77" transform="translate(12.187)">
        <path id="Tracé_57" data-name="Tracé 57" d="M400.019,160.267,396,156.243a.478.478,0,0,1,.676-.676l4.024,4.024a.478.478,0,1,1-.676.676Z" transform="translate(-395.855 -155.427)" fill="#fff" stroke="#fff" stroke-width="1"/>
        <path id="Tracé_58" data-name="Tracé 58" d="M395.994,245.266a.478.478,0,0,1,0-.676l4.024-4.024a.478.478,0,0,1,.676.676l-4.024,4.024a.478.478,0,0,1-.676,0Z" transform="translate(-395.854 -236.361)" fill="#fff" stroke="#fff" stroke-width="1"/>
      </g>
    </g>
  </g>
</svg>
