<svg xmlns="http://www.w3.org/2000/svg" width="20.448" height="24.5" viewBox="0 0 20.448 24.5">
  <g id="noun_notifications_1891455" transform="translate(-298.25 -358.25)">
    <g id="Groupe_11" data-name="Groupe 11" transform="translate(298.5 358.5)">
      <path id="Tracé_11" data-name="Tracé 11" d="M19.705,17.018a.52.52,0,0,1-.17-.718.527.527,0,0,1,.723-.169.855.855,0,0,0,.22.1,2.607,2.607,0,0,1-.655,5.135H5.125a2.607,2.607,0,0,1-.65-5.137.869.869,0,0,0,.222-.1.527.527,0,0,1,.722.172.52.52,0,0,1-.173.717,1.874,1.874,0,0,1-.511.225,1.565,1.565,0,0,0,.39,3.082h14.7a1.565,1.565,0,0,0,.393-3.081A1.863,1.863,0,0,1,19.705,17.018Zm.8-.449a.525.525,0,0,1-1.05,0V10A6.7,6.7,0,0,0,13.9,3.547a.522.522,0,1,1,.2-1.024A7.747,7.747,0,0,1,20.5,10ZM10.824,2.528a.522.522,0,1,1,.21,1.022l-.1.02A6.686,6.686,0,0,0,5.5,10v6.572a.525.525,0,0,1-1.05,0V10A7.729,7.729,0,0,1,10.72,2.55ZM8.8,20.848a.525.525,0,0,1,1.05,0,2.625,2.625,0,0,0,5.25,0,.525.525,0,0,1,1.05,0,3.675,3.675,0,0,1-7.349,0ZM11.456,3.035a.525.525,0,0,1-1.05,0V2.629a2.062,2.062,0,1,1,4.122,0v.406a.525.525,0,0,1-1.05,0V2.629a1.013,1.013,0,1,0-2.022,0Z" transform="translate(-2.5 -0.5)" fill="#fff" stroke="#fff" stroke-width="0.5"/>
    </g>
  </g>
</svg>
