<svg id="Groupe_22" data-name="Groupe 22" xmlns="http://www.w3.org/2000/svg" width="17.166" height="17.166" viewBox="0 0 17.166 17.166">
  <path id="Tracé_21" data-name="Tracé 21" d="M25,12.911a.383.383,0,0,0,.271-.112l.542-.543a2.684,2.684,0,1,0-3.8-3.8L21.475,9a.383.383,0,0,0,0,.542L10.359,20.661l0,0a.375.375,0,0,0-.074.111.327.327,0,0,0-.012.032.357.357,0,0,0-.015.038l-.813,3.525a.383.383,0,0,0,.46.46l3.525-.813L13.469,24c.01,0,.021-.007.031-.012a.383.383,0,0,0,.109-.073l0,0,10.3-10.3.542.542-2.982,2.983.542.542,3.253-3.254a.383.383,0,0,0,0-.542l-.813-.813.271-.271A.383.383,0,0,0,25,12.911ZM22.56,9a1.917,1.917,0,1,1,2.711,2.711L25,11.985,22.288,9.275Zm-.542,1.085,2.169,2.169L13.341,23.1l-2.169-2.169ZM10.328,23.945l.52-2.253,1.733,1.733Z" transform="translate(-9.433 -7.675)" fill="#e9e9e9"/>
</svg>
