<svg xmlns="http://www.w3.org/2000/svg" width="24" height="24" viewBox="0 0 24 24">
  <g id="noun_setting_4186450" transform="translate(-1.014 -1.169)">
    <g id="Groupe_8" data-name="Groupe 8" transform="translate(1.014 1.169)">
      <path id="Tracé_8" data-name="Tracé 8" d="M13.015,9.5a3.807,3.807,0,1,1-3.764,3.807A3.787,3.787,0,0,1,13.015,9.5Zm0-1.618a5.425,5.425,0,1,0,5.366,5.425A5.4,5.4,0,0,0,13.015,7.88Zm.811-5.061.331,1.261a.8.8,0,0,0,.613.586,8.647,8.647,0,0,1,2.4.881.794.794,0,0,0,.842-.05l1.056-.752A10.405,10.405,0,0,1,20.308,5.8l-.549,1.181a.816.816,0,0,0,.1.85,8.855,8.855,0,0,1,1.275,2.231.8.8,0,0,0,.677.509l1.288.11a10.611,10.611,0,0,1,.282,1.614l-1.172.549a.809.809,0,0,0-.464.711,8.9,8.9,0,0,1-.443,2.538.815.815,0,0,0,.2.828l.916.921a10.532,10.532,0,0,1-.811,1.419l-1.248-.346a.8.8,0,0,0-.808.243,8.751,8.751,0,0,1-1.954,1.656.812.812,0,0,0-.378.762l.117,1.3a10.263,10.263,0,0,1-1.522.561l-.738-1.071a.8.8,0,0,0-.774-.338,8.636,8.636,0,0,1-2.551,0,.8.8,0,0,0-.774.338l-.738,1.071a10.247,10.247,0,0,1-1.522-.561l.116-1.3a.812.812,0,0,0-.378-.762A8.751,8.751,0,0,1,6.493,19.16a.8.8,0,0,0-.808-.243l-1.247.341a10.566,10.566,0,0,1-.811-1.42l.916-.921a.815.815,0,0,0,.2-.828,8.9,8.9,0,0,1-.452-2.538.809.809,0,0,0-.464-.711l-1.169-.549a10.616,10.616,0,0,1,.282-1.614l1.288-.11a.8.8,0,0,0,.677-.509,8.855,8.855,0,0,1,1.276-2.23.816.816,0,0,0,.1-.846L5.722,5.8A10.418,10.418,0,0,1,6.965,4.749L8.021,5.5a.794.794,0,0,0,.842.05,8.647,8.647,0,0,1,2.4-.881.8.8,0,0,0,.613-.586L12.2,2.823a10.248,10.248,0,0,1,1.622,0Zm1.407-.954a.8.8,0,0,0-.671-.6,11.86,11.86,0,0,0-3.094,0,.8.8,0,0,0-.671.6L10.449,3.2a10.215,10.215,0,0,0-1.9.7L7.436,3.1a.794.794,0,0,0-.893-.02,12.054,12.054,0,0,0-2.37,2.01.816.816,0,0,0-.135.89l.579,1.245A10.492,10.492,0,0,0,3.605,8.994L2.249,9.11a.8.8,0,0,0-.7.566,12.259,12.259,0,0,0-.537,3.079.81.81,0,0,0,.464.77l1.236.578a10.535,10.535,0,0,0,.351,2.011l-.965.969a.815.815,0,0,0-.175.884,12.183,12.183,0,0,0,1.547,2.708.8.8,0,0,0,.846.289l1.314-.359A10.364,10.364,0,0,0,7.18,21.919l-.123,1.37a.811.811,0,0,0,.429.791,11.938,11.938,0,0,0,2.908,1.07.8.8,0,0,0,.832-.328L12,23.689a10.164,10.164,0,0,0,2.021,0l.778,1.133a.8.8,0,0,0,.832.328,11.938,11.938,0,0,0,2.905-1.07.811.811,0,0,0,.429-.791l-.123-1.37A10.389,10.389,0,0,0,20.4,20.605l1.314.36a.8.8,0,0,0,.846-.289A12.183,12.183,0,0,0,24.1,17.969a.815.815,0,0,0-.175-.884l-.966-.971a10.534,10.534,0,0,0,.351-2.011l1.236-.578a.81.81,0,0,0,.464-.77,12.26,12.26,0,0,0-.537-3.079.8.8,0,0,0-.7-.566l-1.357-.116a10.471,10.471,0,0,0-1.011-1.769l.579-1.245a.816.816,0,0,0-.135-.89,12.054,12.054,0,0,0-2.37-2.01.794.794,0,0,0-.893.02l-1.113.793a10.263,10.263,0,0,0-1.9-.7Z" transform="translate(-1.014 -1.169)" fill="#e9e9e9" fill-rule="evenodd"/>
    </g>
  </g>
</svg>
