<svg xmlns="http://www.w3.org/2000/svg" width="21" height="21" viewBox="0 0 21 21">
  <g id="_001-slack" data-name="001-slack" transform="translate(-0.002 0.001)">
    <path id="Tracé_13" data-name="Tracé 13" d="M8.528,12.651a2.206,2.206,0,0,0-2.206,2.206v5.518a2.206,2.206,0,1,0,4.412,0V14.857a2.207,2.207,0,0,0-2.206-2.206Z" transform="translate(-0.79 -1.582)" fill="#fff"/>
    <path id="Tracé_14" data-name="Tracé 14" d="M.019,14.857a2.208,2.208,0,0,0,4.415,0V12.649H2.227A2.208,2.208,0,0,0,.019,14.857Z" transform="translate(-0.002 -1.581)" fill="#fff"/>
    <path id="Tracé_15" data-name="Tracé 15" d="M8.53,0h0a2.208,2.208,0,0,0,0,4.415h2.206V2.2A2.2,2.2,0,0,0,8.53,0Z" transform="translate(-0.79)" fill="#fff"/>
    <path id="Tracé_16" data-name="Tracé 16" d="M2.21,10.739H7.738a2.208,2.208,0,0,0,0-4.415H2.21a2.208,2.208,0,1,0,0,4.415Z" transform="translate(0 -0.791)" fill="#fff"/>
    <path id="Tracé_17" data-name="Tracé 17" d="M21.142,6.323a2.2,2.2,0,0,0-2.2,2.2v2.212h2.206a2.208,2.208,0,0,0,0-4.415Z" transform="translate(-2.367 -0.791)" fill="#fff"/>
    <path id="Tracé_18" data-name="Tracé 18" d="M12.641,2.207V7.741a2.206,2.206,0,1,0,4.412,0V2.207a2.206,2.206,0,0,0-4.412,0Z" transform="translate(-1.58 0)" fill="#fff"/>
    <path id="Tracé_19" data-name="Tracé 19" d="M17.052,21.161a2.206,2.206,0,0,0-2.206-2.206H12.64v2.208a2.206,2.206,0,0,0,4.412,0Z" transform="translate(-1.58 -2.37)" fill="#fff"/>
    <path id="Tracé_20" data-name="Tracé 20" d="M20.374,12.649H14.846a2.208,2.208,0,1,0,0,4.415h5.528a2.208,2.208,0,1,0,0-4.415Z" transform="translate(-1.58 -1.581)" fill="#fff"/>
  </g>
</svg>
