<?xml version="1.0" encoding="UTF-8" standalone="no"?>
<svg
   xmlns:dc="http://purl.org/dc/elements/1.1/"
   xmlns:cc="http://creativecommons.org/ns#"
   xmlns:rdf="http://www.w3.org/1999/02/22-rdf-syntax-ns#"
   xmlns:svg="http://www.w3.org/2000/svg"
   xmlns="http://www.w3.org/2000/svg"
   fill="#000000"
   viewBox="0 0 24 24"
   width="24"
   height="24"
   version="1.1"
   id="svg835">
  <metadata
     id="metadata841">
    <rdf:RDF>
      <cc:Work
         rdf:about="">
        <dc:format>image/svg+xml</dc:format>
        <dc:type
           rdf:resource="http://purl.org/dc/dcmitype/StillImage" />
        <dc:title></dc:title>
      </cc:Work>
    </rdf:RDF>
  </metadata>
  <defs
     id="defs839" />
  <path
     d="M 12,0 C 5.373,0 0,5.373 0,12 0,18.627 5.373,24 12,24 18.627,24 24,18.627 24,12 24,5.373 18.627,0 12,0 Z m 4.181,8 H 14.452 C 13.376,8 13,8.568 13,9.718 V 11 h 3.154 l -0.428,3 H 13 v 7.95 C 12.671,21.982 12.338,22 12,22 11.315,22 10.646,21.93 10,21.799 V 14 H 7 v -3 h 3 V 9.389 C 10,6.339 11.486,5 14.021,5 c 1.214,0 1.856,0.09 2.16,0.131 z"
     id="path833"
     style="fill:#ffffff" />
</svg>
