<?xml version="1.0" encoding="UTF-8" standalone="no"?>
<svg
   xmlns:dc="http://purl.org/dc/elements/1.1/"
   xmlns:cc="http://creativecommons.org/ns#"
   xmlns:rdf="http://www.w3.org/1999/02/22-rdf-syntax-ns#"
   xmlns:svg="http://www.w3.org/2000/svg"
   xmlns="http://www.w3.org/2000/svg"
   fill="#000000"
   viewBox="0 0 18 18"
   width="18"
   height="18"
   version="1.1"
   id="svg845">
  <metadata
     id="metadata851">
    <rdf:RDF>
      <cc:Work
         rdf:about="">
        <dc:format>image/svg+xml</dc:format>
        <dc:type
           rdf:resource="http://purl.org/dc/dcmitype/StillImage" />
        <dc:title></dc:title>
      </cc:Work>
    </rdf:RDF>
  </metadata>
  <defs
     id="defs849" />
  <path
     d="M 5,0 C 2.243,0 0,2.243 0,5 v 8 c 0,2.757 2.243,5 5,5 h 8 c 2.757,0 5,-2.243 5,-5 V 5 C 18,2.243 15.757,0 13,0 Z m 0,2 h 8 c 1.654,0 3,1.346 3,3 v 8 c 0,1.654 -1.346,3 -3,3 H 5 C 3.346,16 2,14.654 2,13 V 5 C 2,3.346 3.346,2 5,2 Z m 9,1 A 1,1 0 0 0 13,4 1,1 0 0 0 14,5 1,1 0 0 0 15,4 1,1 0 0 0 14,3 Z M 9,4 C 6.243,4 4,6.243 4,9 c 0,2.757 2.243,5 5,5 2.757,0 5,-2.243 5,-5 C 14,6.243 11.757,4 9,4 Z m 0,2 c 1.654,0 3,1.346 3,3 0,1.654 -1.346,3 -3,3 C 7.346,12 6,10.654 6,9 6,7.346 7.346,6 9,6 Z"
     id="path843"
     style="fill:#ffffff" />
</svg>
