<?xml version="1.0" encoding="UTF-8" standalone="no"?>
<svg
   xmlns:dc="http://purl.org/dc/elements/1.1/"
   xmlns:cc="http://creativecommons.org/ns#"
   xmlns:rdf="http://www.w3.org/1999/02/22-rdf-syntax-ns#"
   xmlns:svg="http://www.w3.org/2000/svg"
   xmlns="http://www.w3.org/2000/svg"
   fill="#000000"
   viewBox="0 0 22 22"
   width="22"
   height="22"
   version="1.1"
   id="svg835">
  <metadata
     id="metadata841">
    <rdf:RDF>
      <cc:Work
         rdf:about="">
        <dc:format>image/svg+xml</dc:format>
        <dc:type
           rdf:resource="http://purl.org/dc/dcmitype/StillImage" />
        <dc:title></dc:title>
      </cc:Work>
    </rdf:RDF>
  </metadata>
  <defs
     id="defs839" />
  <path
     d="M 20,0 H 2 C 0.895,0 0,0.895 0,2 v 18 c 0,1.105 0.895,2 2,2 h 18 c 1.105,0 2,-0.895 2,-2 V 2 C 22,0.895 21.105,0 20,0 Z M 6.954,18 H 4.004 V 8.508 h 2.95 z M 5.449,7.151 c -0.951,0 -1.72,-0.771 -1.72,-1.72 0,-0.949 0.77,-1.719 1.72,-1.719 0.948,0 1.719,0.771 1.719,1.719 0,0.949 -0.771,1.72 -1.719,1.72 z M 18.004,18 h -2.948 v -4.616 c 0,-1.101 -0.02,-2.517 -1.533,-2.517 -1.535,0 -1.771,1.199 -1.771,2.437 V 18 H 8.804 V 8.508 h 2.83 v 1.297 h 0.04 c 0.394,-0.746 1.356,-1.533 2.791,-1.533 2.987,0 3.539,1.966 3.539,4.522 z"
     id="path833"
     style="fill:#ffffff" />
</svg>
