<?xml version="1.0" encoding="UTF-8" standalone="no"?>
<svg
   xmlns:dc="http://purl.org/dc/elements/1.1/"
   xmlns:cc="http://creativecommons.org/ns#"
   xmlns:rdf="http://www.w3.org/1999/02/22-rdf-syntax-ns#"
   xmlns:svg="http://www.w3.org/2000/svg"
   xmlns="http://www.w3.org/2000/svg"
   fill="#000000"
   viewBox="0 0 46 46"
   width="46"
   height="46"
   version="1.1"
   id="svg835">
  <metadata
     id="metadata841">
    <rdf:RDF>
      <cc:Work
         rdf:about="">
        <dc:format>image/svg+xml</dc:format>
        <dc:type
           rdf:resource="http://purl.org/dc/dcmitype/StillImage" />
        <dc:title></dc:title>
      </cc:Work>
    </rdf:RDF>
  </metadata>
  <defs
     id="defs839" />
  <path
     d="m 29,22 c -2.757,0 -5,-2.243 -5,-5 V 5 c 0,-2.757 2.243,-5 5,-5 2.757,0 5,2.243 5,5 v 12 c 0,2.757 -2.243,5 -5,5 z m 12,0 h -4 c -0.553,0 -1,-0.447 -1,-1 v -4 c 0,-2.757 2.243,-5 5,-5 2.757,0 5,2.243 5,5 0,2.757 -2.243,5 -5,5 z M 17,22 H 5 C 2.243,22 0,19.757 0,17 0,14.243 2.243,12 5,12 h 12 c 2.757,0 5,2.243 5,5 0,2.757 -2.243,5 -5,5 z m 4,-12 h -4 c -2.757,0 -5,-2.243 -5,-5 0,-2.757 2.243,-5 5,-5 2.757,0 5,2.243 5,5 v 4 c 0,0.553 -0.447,1 -1,1 z m -4,36 c -2.757,0 -5,-2.243 -5,-5 V 29 c 0,-2.757 2.243,-5 5,-5 2.757,0 5,2.243 5,5 v 12 c 0,2.757 -2.243,5 -5,5 z M 5,34 C 2.243,34 0,31.757 0,29 0,26.243 2.243,24 5,24 h 4 c 0.553,0 1,0.447 1,1 v 4 c 0,2.757 -2.243,5 -5,5 z m 36,0 H 29 c -2.757,0 -5,-2.243 -5,-5 0,-2.757 2.243,-5 5,-5 h 12 c 2.757,0 5,2.243 5,5 0,2.757 -2.243,5 -5,5 z M 29,46 c -2.757,0 -5,-2.243 -5,-5 v -4 c 0,-0.553 0.447,-1 1,-1 h 4 c 2.757,0 5,2.243 5,5 0,2.757 -2.243,5 -5,5 z"
     id="path833"
     style="fill:#ffffff" />
</svg>
