<?xml version="1.0" encoding="UTF-8" standalone="no"?>
<svg
   xmlns:dc="http://purl.org/dc/elements/1.1/"
   xmlns:cc="http://creativecommons.org/ns#"
   xmlns:rdf="http://www.w3.org/1999/02/22-rdf-syntax-ns#"
   xmlns:svg="http://www.w3.org/2000/svg"
   xmlns="http://www.w3.org/2000/svg"
   fill="#000000"
   viewBox="0 0 26.000999 21.129"
   width="26.000999"
   height="21.129"
   version="1.1"
   id="svg1450">
  <metadata
     id="metadata1456">
    <rdf:RDF>
      <cc:Work
         rdf:about="">
        <dc:format>image/svg+xml</dc:format>
        <dc:type
           rdf:resource="http://purl.org/dc/dcmitype/StillImage" />
        <dc:title></dc:title>
      </cc:Work>
    </rdf:RDF>
  </metadata>
  <defs
     id="defs1454" />
  <path
     d="M 26.001,2.501 C 25.044,2.926 24.016,3.212 22.937,3.341 24.039,2.681 24.884,1.636 25.282,0.39 24.252,1.001 23.11,1.445 21.894,1.685 20.921,0.648 19.535,0 18.001,0 c -2.946,0 -5.334,2.389 -5.334,5.334 0,0.418 0.048,0.826 0.138,1.215 C 8.372,6.327 4.442,4.203 1.81,0.975 1.352,1.763 1.089,2.679 1.089,3.658 1.089,5.508 2.03,7.141 3.461,8.097 2.587,8.069 1.764,7.829 1.045,7.43 c 0,0.023 0,0.044 0,0.067 0,2.585 1.838,4.741 4.279,5.23 -0.447,0.122 -0.919,0.187 -1.406,0.187 -0.343,0 -0.678,-0.034 -1.003,-0.095 0.679,2.119 2.649,3.662 4.983,3.705 -1.825,1.431 -4.125,2.284 -6.625,2.284 -0.43,0 -0.855,-0.025 -1.273,-0.075 2.361,1.513 5.164,2.396 8.177,2.396 9.812,0 15.176,-8.128 15.176,-15.177 0,-0.231 -0.005,-0.461 -0.015,-0.69 1.043,-0.753 1.948,-1.692 2.663,-2.761 z"
     id="path1448"
     style="fill:#ffffff" />
</svg>
