<svg id="Calque_1" data-name="Calque 1" xmlns="http://www.w3.org/2000/svg" xmlns:xlink="http://www.w3.org/1999/xlink" viewBox="0 0 200 200"><defs><style>.cls-1{fill:url(#Dégradé_sans_nom);}.cls-2,.cls-4{fill:#fff;}.cls-3,.cls-4{isolation:isolate;}.cls-4{font-size:19px;font-family:Dosis-SemiBold, Dosis;font-weight:600;}.cls-5{letter-spacing:-0.02em;}.cls-6{letter-spacing:-0.01em;}</style><linearGradient id="Dégradé_sans_nom" x1="-308.44" y1="406.34" x2="-309.44" y2="405.34" gradientTransform="matrix(200, 0, 0, -200, 61889, 81267.11)" gradientUnits="userSpaceOnUse"><stop offset="0" stop-color="#ff4093"/><stop offset="1" stop-color="#ec567c"/></linearGradient></defs><g id="Groupe_139" data-name="Groupe 139"><g id="Groupe_136" data-name="Groupe 136"><g id="Groupe_69" data-name="Groupe 69"><g id="Groupe_18" data-name="Groupe 18"><rect id="Rectangle_14-2" data-name="Rectangle 14-2" class="cls-1" width="200" height="200" rx="15"/></g></g></g><g id="Groupe_138" data-name="Groupe 138"><path id="_001-doubt" data-name=" 001-doubt" class="cls-2" d="M59.4,70.09l14.74,10.1V75.25h10V64.93h-10V60Zm21.44-1.72v3.44h-10v2l-5.35-3.67,5.36-3.67v2Zm81.74,1.72L147.84,60v4.94H137.79V75.25h10.05v4.94Zm-21.44,1.72V68.37h10.05v-2l5.35,3.67-5.35,3.67v-2Zm16.75,13.77h-6.95a6.63,6.63,0,0,0-6,3.8l-3.57,7.33-2.15-6.07a18.68,18.68,0,0,0-13.7-12.09l-6.47-1.33-1-4.07A13.76,13.76,0,0,0,124,64.93h.44a6.81,6.81,0,0,0,6.7-6.89,6.88,6.88,0,0,0-1.5-4.28l1.21-4.63a10.57,10.57,0,0,0,.29-2.44,10.1,10.1,0,0,0-6.46-9.47l-11-4.12a13.77,13.77,0,0,0-4.8-.87A14,14,0,0,0,97.56,38l-.85,1.16A6.84,6.84,0,0,0,90.89,46a29.29,29.29,0,0,0,1.46,7.81A7,7,0,0,0,90.89,58a6.81,6.81,0,0,0,6.7,6.89H98a13.76,13.76,0,0,0,5.88,8.22l-1,4.07-6.47,1.33a18.68,18.68,0,0,0-13.7,12.09L80.6,96.71,77,89.38a6.67,6.67,0,0,0-6-3.8H64.1a5.17,5.17,0,0,0,0,10.33h4l7.52,14.16a8.78,8.78,0,0,0,15.4.4l1.16-1.8c.21,3.22.36,6.58.36,9.61a110.38,110.38,0,0,1-1.64,18.6l-.4,2.05h40.93l-.4-2.05a109.36,109.36,0,0,1-1.64-18.6c0-3,.15-6.4.36-9.61l1.12,1.74a8.79,8.79,0,0,0,15.44-.33l7.52-14.17h4a5.16,5.16,0,0,0,0-10.32Zm-38.75-4.83L118.08,88l-4.39-2.72,4.55-4.67Zm-10,15.15h3.8l3,22-5,7.62L106,117.86Zm4-3.44h-4.24l-.91-3,3-1.87,3,1.87Zm11.28-31V54.6a3.45,3.45,0,0,1,0,6.89ZM94.24,58a3.41,3.41,0,0,1,3.35-3.44h.06c0,.35-.06.69-.06,1v5.84A3.4,3.4,0,0,1,94.24,58Zm4.12-6.88h-.77a6.72,6.72,0,0,0-2.38.47,22.91,22.91,0,0,1-1-5.63,3.4,3.4,0,0,1,3.35-3.44h.84l1.81-2.48a10.67,10.67,0,0,1,8.57-4.4,10.38,10.38,0,0,1,3.66.65l11,4.12a6.67,6.67,0,0,1,4.25,6.24,6.5,6.5,0,0,1-.19,1.58l-.87,3.33a6.65,6.65,0,0,0-2.29-.44h-1.67c-7.76,0-17.4-6.53-17.5-6.6l-.93-.64-.93.64a13.24,13.24,0,0,0-5,6.6Zm2.58,10.33V55.64a10,10,0,0,1,3.43-7.56c2.62,1.65,9.84,5.82,16.67,6.44v7a10.05,10.05,0,0,1-20.1.49v-.49Zm10,13.76a13.19,13.19,0,0,0,4-.62l.86,3.54-4.85,5-4.84-5,.86-3.54A13.13,13.13,0,0,0,111,75.25Zm-7.25,5.31,4.55,4.67-4.39,2.71-1.06-7.2ZM88.21,108.62a5.47,5.47,0,0,1-7.46,2.06,5.41,5.41,0,0,1-2.16-2.26L71.07,94.25a3.35,3.35,0,0,0-2.94-1.79h-4a1.72,1.72,0,1,1,0-3.44H71a3.32,3.32,0,0,1,3,1.9l7,14.35,3-1.54L82.67,101l.4-1.13L91.2,104ZM111,135.48H94.56a114,114,0,0,0,1.36-17.21c0-10.31-1.67-24.16-1.69-24.3l-3.32.43c0,.06.29,2.45.62,5.93l-7.31-3.76,1.68-4.75a15.3,15.3,0,0,1,11.21-9.9l2.44-.5,1.79,12.11L105,91.27l.93,3-3.39,24.36,8.45,13,8.45-13-3.39-24.36.93-3,3.67,2.26,1.78-12.12,2.44.5a15.28,15.28,0,0,1,11.21,9.9l1.69,4.75-7.32,3.76c.33-3.48.62-5.88.63-5.93L127.75,94c0,.14-1.68,14-1.68,24.3a114.08,114.08,0,0,0,1.35,17.21Zm46.9-43h-4a3.34,3.34,0,0,0-2.94,1.8l-7.52,14.16a5.52,5.52,0,0,1-4.87,3,5.58,5.58,0,0,1-4.8-2.83L130.79,104l8.13-4.18.4,1.13L138,103.74l3,1.54,7-14.36a3.31,3.31,0,0,1,3-1.9h6.94a1.72,1.72,0,0,1,0,3.44Z" transform="translate(-9 -6)"/><g id="Groupe_137" data-name="Groupe 137"><g id="Peu_importe" data-name="Peu importe" class="cls-3"><text class="cls-4" transform="translate(51.75 163)"><tspan class="cls-5">P</tspan><tspan x="9.9" y="0">eu impor</tspan><tspan class="cls-6" x="77.37" y="0">t</tspan><tspan x="83.49" y="0">e</tspan></text></g></g></g></g></svg>