<svg id="Calque_1" data-name="Calque 1" xmlns="http://www.w3.org/2000/svg" xmlns:xlink="http://www.w3.org/1999/xlink" viewBox="0 0 178 178"><defs><style>.cls-1{filter:url(#Rectangle_14);}.cls-2{fill:url(#Dégradé_sans_nom);}.cls-3{fill:#fff;stroke:#fff;stroke-width:1.2px;}</style><filter id="Rectangle_14" x="0" y="0" width="196" height="196" name="Rectangle_14"><feOffset dy="3"/><feGaussianBlur result="blur" stdDeviation="3"/><feFlood flood-opacity="0.16"/><feComposite operator="in" in="blur"/><feComposite in="SourceGraphic"/></filter><linearGradient id="Dégradé_sans_nom" x1="-319.19" y1="395.16" x2="-320.19" y2="394.16" gradientTransform="matrix(178, 0, 0, -178, 56994, 70338.05)" gradientUnits="userSpaceOnUse"><stop offset="0" stop-color="#ff4093"/><stop offset="1" stop-color="#ec567c"/></linearGradient></defs><g id="Groupe_128" data-name="Groupe 128"><g id="Groupe_72" data-name="Groupe 72"><g id="Groupe_18" data-name="Groupe 18"><g class="cls-1"><rect id="Rectangle_14-2" data-name="Rectangle 14-2" class="cls-2" width="178" height="178" rx="15"/></g></g></g><g id="noun_write_4097286" data-name="noun write 4097286"><path id="Tracé_54" data-name="Tracé 54" class="cls-3" d="M144.61,142.26c-.42,0-42.76-.08-69.65-7.4-4.68-1.28-6.07-2.06-6.48-2.4,1.28-.85,7.33-1.65,12.25-2.31,12.07-1.61,25.75-3.43,25.08-9.29-1-9-35-8.33-49.27-7.67l12-4.48a.93.93,0,0,0,.6-.25l.13-.14h0L120,57.61a.88.88,0,0,0,0-1.24h0L108.84,45.25a.89.89,0,0,0-1.23,0L56.76,96.09a.84.84,0,0,0-.24.55L50,114.08s0,0,0,0v0a.84.84,0,0,0,0,.27v.09a.77.77,0,0,0,.07.26s0,0,0,0a1.07,1.07,0,0,0,.15.22l0,0,.1.06a.78.78,0,0,0,.2.11l.1,0,.2,0h.06c20.13-1.37,52.36-1,53.14,5.81.48,4.15-14,6.07-23.56,7.35-10.39,1.39-13.76,2-13.89,3.93-.09,1.28,1.18,2.38,7.9,4.2,27.11,7.38,69.68,7.47,70.11,7.47a.88.88,0,1,0,.06-1.75h-.08ZM57.76,98.33l9.13,9.12L60,110.05l-4.77-4.76Zm10.83,8.17-4.32-4.31L84.55,81.9l29.24-29.24L118.11,57Zm39.63-59.4,4.33,4.32L63,101l-4.33-4.31Zm-53.72,60,3.64,3.63-5.79,2.17Z" transform="translate(-9 -6)"/></g></g></svg>