<svg id="Calque_1" data-name="Calque 1" xmlns="http://www.w3.org/2000/svg" xmlns:xlink="http://www.w3.org/1999/xlink" viewBox="0 0 200 200"><defs><style>.cls-1{fill:url(#Dégradé_sans_nom);}.cls-2,.cls-4{fill:#fff;}.cls-2{stroke:#fff;stroke-width:1.2px;}.cls-3,.cls-4{isolation:isolate;}.cls-4{font-size:19px;font-family:Dosis-SemiBold, Dosis;font-weight:600;}.cls-5{letter-spacing:-0.01em;}</style><linearGradient id="Dégradé_sans_nom" x1="-308.44" y1="406.34" x2="-309.44" y2="405.34" gradientTransform="matrix(200, 0, 0, -200, 61889, 81267.11)" gradientUnits="userSpaceOnUse"><stop offset="0" stop-color="#ff4093"/><stop offset="1" stop-color="#ec567c"/></linearGradient></defs><g id="Groupe_142" data-name="Groupe 142"><g id="Groupe_141" data-name="Groupe 141"><g id="Groupe_72" data-name="Groupe 72"><g id="Groupe_18" data-name="Groupe 18"><rect id="Rectangle_14-2" data-name="Rectangle 14-2" class="cls-1" width="200" height="200" rx="15"/></g></g><g id="noun_write_4097286" data-name="noun write 4097286"><path id="Tracé_54" data-name="Tracé 54" class="cls-2" d="M154.36,137.22c-.41,0-41.46-.09-67.53-7.18-4.54-1.24-5.88-2-6.28-2.33,1.24-.82,7.1-1.6,11.88-2.24,11.7-1.56,25-3.33,24.31-9-1-8.68-33.91-8.08-47.77-7.44l11.62-4.34a.9.9,0,0,0,.58-.25l.13-.13h0l49.16-49.16a.85.85,0,0,0,0-1.2h0L119.69,43.16a.87.87,0,0,0-1.2,0l-49.3,49.3A.81.81,0,0,0,69,93l-6.28,16.9V110a.75.75,0,0,0,0,.26v.08a1,1,0,0,0,.07.25.05.05,0,0,0,0,0,1,1,0,0,0,.15.21l0,0,.09.06a1.18,1.18,0,0,0,.19.11l.1,0a.63.63,0,0,0,.19,0h.06c19.52-1.32,50.77-1,51.53,5.64.46,4-13.57,5.88-22.85,7.12-10.08,1.35-13.34,1.94-13.47,3.81-.08,1.24,1.15,2.3,7.66,4.08,26.28,7.15,67.55,7.24,68,7.24a.85.85,0,0,0,0-1.7ZM70.16,94.63,79,103.47,72.28,106l-4.63-4.61Zm10.5,7.92-4.19-4.18L96.13,78.7l28.34-28.35,4.19,4.19ZM119.08,45l4.19,4.18-48,48L71.06,93ZM67,103.12l3.53,3.52-5.62,2.1Z" transform="translate(-9 -6)"/></g></g><g id="Regular" class="cls-3"><text class="cls-4" transform="translate(70.02 166)"><tspan class="cls-5">R</tspan><tspan x="10.35" y="0">egular</tspan></text></g></g></svg>