<svg id="Calque_1" data-name="Calque 1" xmlns="http://www.w3.org/2000/svg" xmlns:xlink="http://www.w3.org/1999/xlink" viewBox="0 0 200 200"><defs><style>.cls-1{filter:url(#Rectangle_14);}.cls-2{fill:url(#Dégradé_sans_nom);}.cls-3,.cls-7{fill:#fff;}.cls-4,.cls-5{fill:none;}.cls-5{stroke:#fff;stroke-linejoin:round;stroke-width:3.5px;}.cls-6,.cls-7{isolation:isolate;}.cls-7{font-size:19px;font-family:Dosis-SemiBold, Dosis;font-weight:600;}.cls-8{letter-spacing:-0.09em;}.cls-9{letter-spacing:0em;}.cls-10{letter-spacing:0em;}.cls-11{letter-spacing:-0.01em;}.cls-12{letter-spacing:-0.09em;}</style><filter id="Rectangle_14" x="0" y="0" width="218" height="218" name="Rectangle_14"><feOffset dy="3"/><feGaussianBlur result="blur" stdDeviation="3"/><feFlood flood-opacity="0.16"/><feComposite operator="in" in="blur"/><feComposite in="SourceGraphic"/></filter><linearGradient id="Dégradé_sans_nom" x1="-308.44" y1="406.34" x2="-309.44" y2="405.34" gradientTransform="matrix(200, 0, 0, -200, 61889, 81267.11)" gradientUnits="userSpaceOnUse"><stop offset="0" stop-color="#ff4093"/><stop offset="1" stop-color="#ec567c"/></linearGradient></defs><g id="Groupe_144" data-name="Groupe 144"><g id="Groupe_140" data-name="Groupe 140"><g id="Groupe_69" data-name="Groupe 69"><g id="Groupe_18" data-name="Groupe 18"><g class="cls-1"><rect id="Rectangle_14-2" data-name="Rectangle 14-2" class="cls-2" width="200" height="200" rx="15"/></g></g></g><g id="Groupe_76" data-name="Groupe 76"><g id="noun_tinder_2965909" data-name="noun tinder 2965909"><g id="Groupe_75" data-name="Groupe 75"><path id="Tracé_49" data-name="Tracé 49" class="cls-3" d="M131.11,34.73H86.83a8.06,8.06,0,0,0-8.1,8v90.54a8.08,8.08,0,0,0,8,8.1h44.35a8.07,8.07,0,0,0,8.09-8V42.82a8,8,0,0,0-8-8.09Zm-44.28,4.6h44.28a3.62,3.62,0,0,1,3.6,3.6v8.88H83.23v-9A3.62,3.62,0,0,1,86.83,39.33Zm47.88,17v58.56H83.23V56.3Zm-3.6,80.59H86.83a3.62,3.62,0,0,1-3.6-3.6V119.47h51.36v13.94a3.43,3.43,0,0,1-3.37,3.48Z" transform="translate(-9 -6)"/><path id="Tracé_50" data-name="Tracé 50" class="cls-3" d="M102.34,47.75H115.7a2.25,2.25,0,1,0,0-4.49H102.34a2.24,2.24,0,0,0-2.24,2.24,2.12,2.12,0,0,0,2,2.25Z" transform="translate(-9 -6)"/><path id="Tracé_51" data-name="Tracé 51" class="cls-3" d="M109,123.53a4.6,4.6,0,1,0,4.6,4.6h0A4.63,4.63,0,0,0,109,123.53Z" transform="translate(-9 -6)"/><path id="Tracé_52" data-name="Tracé 52" class="cls-3" d="M95.82,104.75l-2.47,2.47a2,2,0,0,0,0,2.78l0,0a2,2,0,0,0,1.34.56A1.8,1.8,0,0,0,96,110l2.47-2.47L101,110a2,2,0,0,0,1.35.56,1.82,1.82,0,0,0,1.35-.56,2,2,0,0,0,0-2.77l0,0-2.47-2.47,2.47-2.47a2,2,0,0,0-2.81-2.81l-2.47,2.47-2.47-2.47a2,2,0,0,0-2.81,2.81Z" transform="translate(-9 -6)"/><path id="Tracé_53" data-name="Tracé 53" class="cls-3" d="M119,100.15l-.78.78-.9-.9a3.57,3.57,0,0,0-5.09,5l.15.15,5.05,5a1.17,1.17,0,0,0,1.46,0l5.16-5.17A3.62,3.62,0,0,0,124,100l-.15-.14A3.52,3.52,0,0,0,119,100.15Z" transform="translate(-9 -6)"/><g id="Rectangle_19" data-name="Rectangle 19"><rect class="cls-4" x="83.1" y="57.96" width="32.62" height="28.07"/><rect class="cls-5" x="84.85" y="59.71" width="29.12" height="24.57"/></g></g></g></g></g><g id="TooLateToAsk" class="cls-6"><text class="cls-7" transform="translate(44.79 166)"><tspan class="cls-8">T</tspan><tspan x="8" y="0">o</tspan><tspan class="cls-9" x="17.25" y="0">o</tspan><tspan class="cls-10" x="26.41" y="0">La</tspan><tspan class="cls-11" x="44.21" y="0">t</tspan><tspan class="cls-12" x="50.33" y="0">e</tspan><tspan class="cls-8" x="57.7" y="0">T</tspan><tspan x="65.7" y="0">oAsk</tspan></text></g><g id="Groupe_143" data-name="Groupe 143"><g id="TooLateToAsk-2" class="cls-6"><text class="cls-7" transform="translate(44.78 166)"><tspan class="cls-8">T</tspan><tspan x="8" y="0">o</tspan><tspan class="cls-9" x="17.25" y="0">o</tspan><tspan class="cls-10" x="26.41" y="0">La</tspan><tspan class="cls-11" x="44.21" y="0">t</tspan><tspan class="cls-12" x="50.33" y="0">e</tspan><tspan class="cls-8" x="57.7" y="0">T</tspan><tspan x="65.7" y="0">oAsk</tspan></text></g></g></g></svg>