<svg id="Calque_1" data-name="Calque 1" xmlns="http://www.w3.org/2000/svg" xmlns:xlink="http://www.w3.org/1999/xlink" viewBox="0 0 178 178"><defs><style>.cls-1{fill:url(#Dégradé_sans_nom);}.cls-2{fill:#fff;}.cls-3,.cls-4{fill:none;}.cls-4{stroke:#fff;stroke-linejoin:round;stroke-width:3.5px;}</style><linearGradient id="Dégradé_sans_nom" x1="-319.19" y1="395.16" x2="-320.19" y2="394.16" gradientTransform="matrix(178, 0, 0, -178, 56994, 70338.05)" gradientUnits="userSpaceOnUse"><stop offset="0" stop-color="#ff4093"/><stop offset="1" stop-color="#ec567c"/></linearGradient></defs><g id="Groupe_125" data-name="Groupe 125"><g id="Groupe_69" data-name="Groupe 69"><g id="Groupe_18" data-name="Groupe 18"><rect id="Rectangle_14-2" data-name="Rectangle 14-2" class="cls-1" width="178" height="178" rx="15"/></g></g><g id="Groupe_76" data-name="Groupe 76"><g id="noun_tinder_2965909" data-name="noun tinder 2965909"><g id="Groupe_75" data-name="Groupe 75"><path id="Tracé_49" data-name="Tracé 49" class="cls-2" d="M117.76,47.58H78.32a7.19,7.19,0,0,0-7.21,7.15v80.65a7.17,7.17,0,0,0,7.15,7.2h39.5a7.18,7.18,0,0,0,7.21-7.14V54.79a7.19,7.19,0,0,0-7.15-7.21Zm-39.44,4.1h39.44a3.24,3.24,0,0,1,3.2,3.2v7.91H75.11v-8A3.21,3.21,0,0,1,78.32,51.68ZM121,66.8V119H75.11V66.8Zm-3.2,71.78H78.32a3.22,3.22,0,0,1-3.2-3.2V123.06h45.74v12.42a3,3,0,0,1-3,3.1Z" transform="translate(-9 -6)"/><path id="Tracé_50" data-name="Tracé 50" class="cls-2" d="M92.14,59.18H104a2,2,0,0,0,0-4H92.14a2,2,0,0,0-2,2,1.88,1.88,0,0,0,1.77,2Z" transform="translate(-9 -6)"/><path id="Tracé_51" data-name="Tracé 51" class="cls-2" d="M98,126.68a4.1,4.1,0,1,0,4.1,4.1h0A4.12,4.12,0,0,0,98,126.68Z" transform="translate(-9 -6)"/><path id="Tracé_52" data-name="Tracé 52" class="cls-2" d="M86.33,110l-2.2,2.2a1.75,1.75,0,0,0,0,2.48l0,0a1.78,1.78,0,0,0,1.2.5,1.62,1.62,0,0,0,1.2-.5l2.2-2.2,2.2,2.2a1.78,1.78,0,0,0,1.2.5,1.62,1.62,0,0,0,1.2-.5,1.74,1.74,0,0,0,0-2.47l0,0-2.2-2.2,2.2-2.2a1.77,1.77,0,0,0-2.5-2.5l-2.2,2.2-2.2-2.2a1.77,1.77,0,0,0-2.5,2.5Z" transform="translate(-9 -6)"/><path id="Tracé_53" data-name="Tracé 53" class="cls-2" d="M107,105.85l-.7.7-.8-.8a3.19,3.19,0,0,0-4.53,4.48l.13.12,4.5,4.5a1.05,1.05,0,0,0,1.3,0l4.6-4.6a3.24,3.24,0,0,0-.07-4.57,1.59,1.59,0,0,0-.13-.13A3.13,3.13,0,0,0,107,105.85Z" transform="translate(-9 -6)"/><g id="Rectangle_19" data-name="Rectangle 19"><rect class="cls-3" x="74.01" y="67.62" width="29.06" height="25"/><rect class="cls-4" x="75.76" y="69.37" width="25.56" height="21.5"/></g></g></g></g></g></svg>